# AST/ASF file generated using VICON BodyLanguage
# -----------------------------------------------
:version 1.10
:name VICON
:units
  mass 1.0
  length 0.45
  angle deg
:documentation
   .ast/.asf automatically generated from VICON data using
   VICON BodyBuilder and BodyLanguage model FoxedUp or BRILLIANT.MOD
:root
   order TX TY TZ RX RY RZ
   axis XYZ
   position 0 0 0  
   orientation 0 0 0 
:bonedata
  begin
     id 1 
     name lhipjoint
     direction 0.822369 -0.411937 0.392449 
     length 3.8167 
     axis 0 0 0  XYZ
  end
  begin
     id 2 
     name lfemur
     direction 0.34202 -0.939693 0  
     length 6.16791  
     axis 0 0 20  XYZ
    dof rx ry rz
    limits (-160.0 20.0)
           (-70.0 70.0)
           (-60.0 70.0)
  end
  begin
     id 3 
     name ltibia
     direction 0.34202 -0.939693 0   
     length 7.07101   
     axis 0 0 20   XYZ
    dof rx
    limits (-10.0 170.0)
  end
  begin
     id 4 
     name lfoot
     direction 0.028254 -0.0776273 0.996582   
     length 1.66799   
     axis -90 7.62852e-016 20   XYZ
    dof rx rz
    limits (-45.0 90.0)
           (-70.0 20.0)
  end
  begin
     id 5 
     name ltoes
     direction 1.53483e-011 -4.21688e-011 1   
     length 0.851674   
     axis -90 7.62852e-016 20   XYZ
    dof rx
    limits (-90.0 20.0)
  end
  begin
     id 6 
     name rhipjoint
     direction -0.822466 -0.411836 0.392353   
     length 3.81764  
     axis 0 0 0  XYZ 
  end
  begin
     id 7 
     name rfemur
     direction -0.34202 -0.939693 0   
     length 6.28636   
     axis 0 0 -20   XYZ
    dof rx ry rz
    limits (-160.0 20.0)
           (-70.0 70.0)
           (-70.0 60.0)
  end
  begin
     id 8 
     name rtibia
     direction -0.34202 -0.939693 0   
     length 6.85621   
     axis 0 0 -20   XYZ
    dof rx
    limits (-10.0 170.0)
 end
 begin
     id 9 
     name rfoot
     direction -0.0553036 -0.151945 0.98684   
     length 1.57293  
     axis -90 -7.62852e-016 -20   XYZ
    dof rx rz
    limits (-45.0 90.0)
           (-20.0 70.0)
  end
  begin
     id 10 
     name rtoes
     direction -1.53592e-011 -4.21964e-011 1   
     length 0.802812   
     axis -90 -7.62852e-016 -20   XYZ
    dof rx
    limits (-90.0 20.0)
  end
  begin
     id 11 
     name lowerback
     direction 0.00654913 0.996475 -0.0836396   
     length 1.97212   
     axis 0 0 0   XYZ
    dof rx ry rz
    limits (-20.0 45.0)
           (-30.0 30.0)
           (-30.0 30.0)
  end
  begin
     id 12 
     name upperback
     direction 0.0111875 0.994527 0.103877   
     length 1.89704   
     axis 0 0 0   XYZ
    dof rx ry rz
    limits (-20.0 45.0)
           (-30.0 30.0)
           (-30.0 30.0)
  end
  begin
     id 13 
     name thorax
     direction 0.00473652 0.989004 0.147814   
     length 1.94516   
     axis 0 0 0   XYZ
    dof rx ry rz
    limits (-20.0 45.0)
           (-30.0 30.0)
           (-30.0 30.0)
  end
  begin
     id 14 
     name lowerneck
     direction -0.00925808 0.999011 0.0434791   
     length 1.81771   
     axis 0 0 0   XYZ
    dof rx ry rz
    limits (-20.0 45.0)
           (-30.0 30.0)
           (-30.0 30.0)
  end
  begin
     id 15 
     name upperneck
     direction 0.00451595 0.964412 -0.264365   
     length 1.80434   
     axis 0 0 0   XYZ
    dof rx ry rz
    limits (-20.0 45.0)
           (-30.0 30.0)
           (-30.0 30.0)
  end
  begin
     id 16
     name head
     direction -0.00110849 0.995756 -0.0920241  
     length 1.84006  
     axis 0 0 0   XYZ
    dof rx ry rz
    limits (-20.0 45.0)
           (-30.0 30.0)
           (-30.0 30.0)
  end
  begin
     id 17 
     name lclavicle
     direction 0.921253 0.385213 0.0538957  
     length 3.67415  
     axis 0 0 0   XYZ
    dof ry rz
    limits (-20.0 10.0)
           (0.0 20.0)
  end
  begin
     id 18 
     name lhumerus
     direction 1 -4.48961e-011 6.73441e-028   
     length 4.32712   
     axis 180 -30 -90   XYZ
    dof rx ry rz
    limits (-60.0 90.0)
           (-90.0 90.0)
           (-90.0 90.0)
  end
  begin
     id 19
     name lradius
     direction 1 -4.48985e-011 -9.53507e-028   
     length 3.28587   
     axis 180 -30 -90   XYZ
    dof rx
    limits (-10.0 170.0)
  end
  begin
     id 20
     name lwrist
     direction 1 -4.48951e-011 -4.67472e-027   
     length 1.64293   
     axis 1.65735e-015 90 90   XYZ
    dof ry
    limits (-180.0 0.0)
 end
  begin
     id 21 
     name lhand
     direction 1 -4.48946e-011 -9.34945e-027   
     length 0.433158   
     axis 5.96574e-015 90 90   XYZ
    dof rx rz
    limits (-90.0 90.0)
           (-45.0 45.0)
  end
  begin
     id 22 
     name lfingers
     direction 1 -4.48882e-011 -1.86989e-026   
     length 0.349224   
     axis 1.19315e-014 90 90   XYZ
    dof rx
    limits (0.0 90.0)
  end
  begin
     id 23
     name lthumb
     direction 0.707107 -6.3493e-011 0.707107   
     length 0.501417   
     axis -90 45 2.85299e-015   XYZ
    dof rx rz
    limits (-45.0 45.0)
           (-45.0 45.0)
  end
  begin
     id 24 
     name rclavicle
     direction -0.884378 0.46502 -0.0403866   
     length 3.50218  
     axis 0 0 0   XYZ 
    dof ry rz
    limits (-10.0 20.0)
           (-20.0 0.0)
  end
  begin
     id 25 
     name rhumerus
     direction -1 -4.48964e-011 1.58188e-027  
     length 4.29104   
     axis 180 30 90   XYZ
    dof rx ry rz
    limits (-90.0 60.0)
           (-90.0 90.0)
           (-90.0 90.0)
  end
  begin
     id 26 
     name rradius
     direction -1 -4.48978e-011 -1.9722e-027   
     length 3.2272   
     axis 180 30 90   XYZ
    dof rx
    limits (-10.0 170.0)
  end
  begin
     id 27 
     name rwrist
     direction -1 -4.48969e-011 -4.67472e-027   
     length 1.6136   
     axis 1.65735e-015 -90 -90   XYZ
    dof ry
    limits (-180.0 0.0)
  end
  begin
     id 28
     name rhand
     direction -1 -4.48846e-011 -9.34945e-027   
     length 0.543623   
     axis 5.96574e-015 -90 -90   XYZ
    dof rx rz
    limits (-90.0 90.0)
           (-45.0 45.0)
  end
  begin
     id 29
     name rfingers
     direction -1 -4.49074e-011 -1.86989e-026   
     length 0.438283   
     axis 1.19315e-014 -90 -90   XYZ
    dof rx
    limits (0.0 90.0)
  end
  begin
     id 30
     name rthumb
     direction -0.707107 -6.34834e-011 0.707107   
     length 0.629289   
     axis -90 -45 -2.85299e-015   XYZ
    dof rx rz
    limits (-45.0 45.0)
           (-45.0 45.0)
  end
:hierarchy
  begin
    root lhipjoint rhipjoint lowerback
    lhipjoint lfemur
    lfemur ltibia
    ltibia lfoot
    lfoot ltoes
    rhipjoint rfemur
    rfemur rtibia
    rtibia rfoot
    rfoot rtoes
    lowerback upperback
    upperback thorax
    thorax lowerneck lclavicle rclavicle
    lowerneck upperneck
    upperneck head
    lclavicle lhumerus
    lhumerus lradius
    lradius lwrist
    lwrist lhand lthumb
    lhand lfingers
    rclavicle rhumerus
    rhumerus rradius
    rradius rwrist
    rwrist rhand rthumb
    rhand rfingers
  end

#!OML:ASF H:\GeneralSubjects\Female5\Project 1\Capture day 1\Session 1\Female5.ASF
:FULLY-SPECIFIED
:DEGREES
113
root -23.5877 15.9193 -0.69319 -158.746 68.4659 192.689
lowerback 4.10807 2.35139 5.66265
upperback -11.8314 5.06994 3.10282
thorax -15.2891 2.28837 -0.623239
lowerneck -22.1586 -10.2159 -15.7962
upperneck 47.8569 -8.46691 6.04572
head 30.9558 -4.33641 5.41086
rclavicle 6.16232e-015 4.21423e-014
rhumerus 6.34402 60.1013 -66.7178
rradius 95.4067
rwrist -39.3508
rhand 27.4667 -25.1722
rfingers 7.12502
rthumb 51.4156 -45.6187
lclavicle 6.16232e-015 4.21423e-014
lhumerus -48.1061 14.562 67.7257
lradius 49.0061
lwrist 2.99988
lhand -19.0758 35.0847
lfingers 7.12502
lthumb 7.23197 64.9411
rfemur 13.9915 19.9412 37.4527
rtibia -2.65503
rfoot -38.0885 -31.195
rtoes -6.1993
lfemur -24.7591 -22.5321 -17.4677
ltibia 22.7035
lfoot -12.8103 8.6033
ltoes -77.4019
114
root -23.571 15.91 -0.690027 -159.263 68.285 192.13
lowerback 4.06161 2.32215 5.41381
upperback -11.7514 4.97592 3.08306
thorax -15.1753 2.27162 -0.488611
lowerneck -22.1658 -10.2721 -15.9464
upperneck 47.8124 -8.48534 6.04545
head 30.9371 -4.37554 5.42617
rclavicle -1.39149e-014 -8.74653e-015
rhumerus 5.69378 59.1199 -67.0373
rradius 96.0724
rwrist -40.5355
rhand 28.7922 -25.8396
rfingers 7.12502
rthumb 52.6179 -45.571
lclavicle -1.39149e-014 -8.74653e-015
lhumerus -47.9641 14.0323 68.3793
lradius 49.4435
lwrist 2.73927
lhand -18.9446 34.7922
lfingers 7.12502
lthumb 7.35861 64.6442
rfemur 14.1506 19.9686 37.385
rtibia -2.68082
rfoot -38.8205 -30.6734
rtoes -5.29579
lfemur -24.6751 -22.6726 -17.6359
ltibia 22.6056
lfoot -13.2195 9.06636
ltoes -77.4255
115
root -23.5569 15.9001 -0.686244 -159.629 68.1597 191.679
lowerback 3.99178 2.28675 5.2644
upperback -11.6969 4.88407 3.03438
thorax -15.0686 2.24203 -0.440216
lowerneck -22.1366 -10.2145 -15.9791
upperneck 47.8607 -8.36921 6.04175
head 30.7399 -4.33618 5.4423
rclavicle -5.30755e-014 -5.08889e-014
rhumerus 5.14202 58.0817 -67.3851
rradius 96.5115
rwrist -41.4125
rhand 30.7013 -25.7848
rfingers 7.12502
rthumb 54.3364 -44.3928
lclavicle -5.30755e-014 -5.08889e-014
lhumerus -47.9367 13.4616 68.8166
lradius 49.6893
lwrist 2.56296
lhand -17.9096 34.3998
lfingers 7.12502
lthumb 8.35757 64.2144
rfemur 14.1866 20.0539 37.3289
rtibia -2.57735
rfoot -39.2856 -30.2423
rtoes -4.63432
lfemur -24.6811 -22.7337 -17.7698
ltibia 22.5647
lfoot -13.6689 9.20553
ltoes -77.4396
116
root -23.5457 15.8918 -0.68399 -159.882 68.0442 191.329
lowerback 3.91037 2.25214 5.13813
upperback -11.6732 4.80656 3.01036
thorax -14.9938 2.21955 -0.379918
lowerneck -22.066 -10.1541 -15.9855
upperneck 47.8628 -8.23857 5.99602
head 30.6068 -4.29585 5.44479
rclavicle -1.98785e-014 -9.54166e-015
rhumerus 4.52831 57.0974 -67.6507
rradius 96.9626
rwrist -42.5295
rhand 32.8148 -25.2558
rfingers 7.12502
rthumb 56.2182 -42.475
lclavicle -1.98785e-014 -9.54166e-015
lhumerus -48.0683 13.0497 69.0894
lradius 49.7954
lwrist 2.26066
lhand -17.0318 34.0777
lfingers 7.12502
lthumb 9.20466 63.8568
rfemur 14.1457 19.98 37.2289
rtibia -2.47577
rfoot -38.5798 -30.3685
rtoes -6.49491
lfemur -24.7756 -22.6837 -17.8891
ltibia 22.6733
lfoot -14.189 9.19595
ltoes -77.4495
117
root -23.5383 15.8852 -0.684546 -160.018 68.0238 191.058
lowerback 3.78926 2.25004 5.06311
upperback -11.658 4.77717 2.9755
thorax -14.8981 2.2142 -0.365576
lowerneck -22 -10.1252 -15.99
upperneck 47.8491 -8.17498 5.95262
head 30.4789 -4.27637 5.42386
rclavicle -4.85035e-014 -6.36111e-014
rhumerus 3.99745 56.1791 -67.7395
rradius 97.4203
rwrist -43.7961
rhand 33.8199 -25.0649
rfingers 7.12502
rthumb 57.1045 -41.5635
lclavicle -4.85035e-014 -6.36111e-014
lhumerus -48.2448 13.0243 69.0833
lradius 49.7814
lwrist 1.74752
lhand -16.6288 34.2706
lfingers 7.12502
lthumb 9.59346 64.0321
rfemur 13.9705 19.7202 36.9799
rtibia -2.39181
rfoot -37.1592 -30.636
rtoes -9.78303
lfemur -24.9727 -22.5692 -17.9821
ltibia 22.8747
lfoot -14.6593 9.22783
ltoes -77.4569
118
root -23.5328 15.8784 -0.681742 -159.858 68.0511 191.088
lowerback 3.84756 2.22529 5.11099
upperback -11.7227 4.75875 2.93828
thorax -15.01 2.19499 -0.434886
lowerneck -21.9481 -10.0833 -15.9317
upperneck 47.8727 -8.11048 5.89744
head 30.416 -4.24662 5.39162
rclavicle 4.94974e-014 1.59028e-015
rhumerus 3.32959 55.3992 -68.0217
rradius 97.8115
rwrist -44.7499
rhand 34.2533 -25.4193
rfingers 7.12502
rthumb 57.4848 -41.5942
lclavicle 4.94974e-014 1.59028e-015
lhumerus -48.6247 13.0605 68.794
lradius 49.6966
lwrist 1.26354
lhand -16.6701 35.0825
lfingers 7.12502
lthumb 9.55369 64.846
rfemur 13.8189 19.7132 36.9198
rtibia -2.37087
rfoot -36.9973 -30.5383
rtoes -10.1316
lfemur -25.2221 -22.4096 -17.8981
ltibia 23.0382
lfoot -14.9693 9.2773
ltoes -77.4634
119
root -23.5282 15.8726 -0.67498 -159.645 68.0694 191.263
lowerback 3.88706 2.21845 5.21114
upperback -11.6982 4.7559 2.922
thorax -14.997 2.17916 -0.508837
lowerneck -21.99 -10.0714 -15.9291
upperneck 47.8482 -8.08776 5.88594
head 30.3812 -4.2416 5.38205
rclavicle 5.36719e-015 1.43125e-014
rhumerus 2.91071 54.6158 -67.971
rradius 98.3062
rwrist -45.6914
rhand 34.3948 -25.4969
rfingers 7.12502
rthumb 57.6087 -41.5643
lclavicle 5.36719e-015 1.43125e-014
lhumerus -48.8908 13.083 68.506
lradius 49.4497
lwrist 0.945311
lhand -16.2866 35.3108
lfingers 7.12502
lthumb 9.92371 65.0569
rfemur 13.822 19.8637 37.0505
rtibia -2.45211
rfoot -37.5164 -30.4937
rtoes -9.29686
lfemur -25.3386 -22.2799 -17.7554
ltibia 23.1063
lfoot -15.1357 9.33544
ltoes -77.4691
